<svg version="1.1" id="Layer_1" xmlns="http://www.w3.org/2000/svg" xmlns:xlink="http://www.w3.org/1999/xlink" x="0px" y="0px"
	 width="100%" viewBox="0 0 1080 1080" enable-background="new 0 0 1080 1080" xml:space="preserve">
<path fill="#9C2D41" opacity="1.000000" stroke="none" 
	d="
M607.000000,1081.000000 
	C404.689972,1081.000000 202.879913,1081.000000 1.034936,1081.000000 
	C1.034936,721.064819 1.034936,361.129669 1.034936,1.097249 
	C360.893616,1.097249 720.787231,1.097249 1080.840454,1.097249 
	C1080.840454,360.999939 1080.840454,720.999939 1080.840454,1081.000000 
	C923.129211,1081.000000 765.314636,1081.000000 607.000000,1081.000000 
M765.748596,853.171082 
	C792.152283,846.105896 817.778015,836.952209 842.343018,824.887878 
	C845.653931,823.261841 847.165405,821.154541 847.606812,817.387695 
	C851.617676,783.156616 855.845764,748.951172 859.999207,714.736755 
	C860.793701,708.192261 861.539307,701.641785 862.296753,695.185303 
	C852.106201,692.846863 852.152161,692.864929 848.730530,701.576660 
	C836.313660,733.190491 819.324585,761.978760 795.761353,786.640564 
	C764.957764,818.880371 727.471680,839.336365 684.102600,848.959473 
	C646.712891,857.255920 609.037354,857.142822 571.384338,850.896912 
	C513.799133,841.344666 463.477844,816.752075 421.142395,776.493774 
	C375.725098,733.304810 346.511658,680.305786 328.921661,620.629150 
	C311.295380,560.829346 307.421814,499.850555 314.972290,438.122040 
	C320.425751,393.537628 333.366638,351.341858 356.922028,312.759216 
	C376.870331,280.084778 402.776123,253.211975 435.287994,232.906067 
	C474.208466,208.597580 516.864441,196.041519 562.480591,192.796783 
	C608.446655,189.527161 653.274963,194.567001 696.438721,211.194901 
	C753.025635,232.993729 797.282471,269.285095 826.336426,323.108337 
	C829.401611,328.786621 832.132812,334.645142 835.131226,340.644592 
	C838.345337,339.915039 841.370178,339.228455 844.540894,338.508759 
	C844.623657,337.427612 844.762573,336.619812 844.736023,335.817505 
	C843.672852,303.674500 842.781067,271.523712 841.352173,239.396820 
	C841.084534,233.379196 844.036255,226.005203 838.949036,221.490875 
	C834.243103,217.314896 827.825806,214.892670 821.899963,212.296570 
	C796.371521,201.112518 769.763306,193.283508 742.562317,187.392151 
	C689.551453,175.910736 636.098389,170.341476 581.811829,174.786331 
	C522.203491,179.666916 465.525177,194.674911 412.806091,223.314545 
	C354.828522,254.810837 308.510468,298.572998 275.660736,356.002319 
	C242.008636,414.834351 227.200043,478.375366 229.299484,546.021362 
	C230.404358,581.622192 234.774338,616.696838 245.106201,650.886108 
	C264.106384,713.759766 299.177032,765.493042 352.185089,804.643616 
	C393.170013,834.914185 439.350983,853.495483 488.891693,864.050842 
	C534.434570,873.754333 580.518677,876.486328 627.015930,874.326111 
	C673.762573,872.154297 719.769958,865.567078 765.748596,853.171082 
z"/>
<path fill="#FEFEFE" opacity="1.000000" stroke="none" 
	d="
M765.358398,853.290833 
	C719.769958,865.567078 673.762573,872.154297 627.015930,874.326111 
	C580.518677,876.486328 534.434570,873.754333 488.891693,864.050842 
	C439.350983,853.495483 393.170013,834.914185 352.185089,804.643616 
	C299.177032,765.493042 264.106384,713.759766 245.106201,650.886108 
	C234.774338,616.696838 230.404358,581.622192 229.299484,546.021362 
	C227.200043,478.375366 242.008636,414.834351 275.660736,356.002319 
	C308.510468,298.572998 354.828522,254.810837 412.806091,223.314545 
	C465.525177,194.674911 522.203491,179.666916 581.811829,174.786331 
	C636.098389,170.341476 689.551453,175.910736 742.562317,187.392151 
	C769.763306,193.283508 796.371521,201.112518 821.899963,212.296570 
	C827.825806,214.892670 834.243103,217.314896 838.949036,221.490875 
	C844.036255,226.005203 841.084534,233.379196 841.352173,239.396820 
	C842.781067,271.523712 843.672852,303.674500 844.736023,335.817505 
	C844.762573,336.619812 844.623657,337.427612 844.540894,338.508759 
	C841.370178,339.228455 838.345337,339.915039 835.131226,340.644592 
	C832.132812,334.645142 829.401611,328.786621 826.336426,323.108337 
	C797.282471,269.285095 753.025635,232.993729 696.438721,211.194901 
	C653.274963,194.567001 608.446655,189.527161 562.480591,192.796783 
	C516.864441,196.041519 474.208466,208.597580 435.287994,232.906067 
	C402.776123,253.211975 376.870331,280.084778 356.922028,312.759216 
	C333.366638,351.341858 320.425751,393.537628 314.972290,438.122040 
	C307.421814,499.850555 311.295380,560.829346 328.921661,620.629150 
	C346.511658,680.305786 375.725098,733.304810 421.142395,776.493774 
	C463.477844,816.752075 513.799133,841.344666 571.384338,850.896912 
	C609.037354,857.142822 646.712891,857.255920 684.102600,848.959473 
	C727.471680,839.336365 764.957764,818.880371 795.761353,786.640564 
	C819.324585,761.978760 836.313660,733.190491 848.730530,701.576660 
	C852.152161,692.864929 852.106201,692.846863 862.296753,695.185303 
	C861.539307,701.641785 860.793701,708.192261 859.999207,714.736755 
	C855.845764,748.951172 851.617676,783.156616 847.606812,817.387695 
	C847.165405,821.154541 845.653931,823.261841 842.343018,824.887878 
	C817.778015,836.952209 792.152283,846.105896 765.358398,853.290833 
z"/>
</svg>